<svg id="Слой_1" data-name="Слой 1" xmlns="http://www.w3.org/2000/svg" viewBox="0 0 150 190"><defs><style>.cls-1{fill-rule:evenodd;}</style></defs><title>Монтажная область 33</title><path class="cls-1" d="M116.59,74.09l-19.32.29,0-6.93,19.33-1.75Zm-6.91,13.29-12.44.09,0-6.28,12.44-.09Zm-.05,12.81-12.42.53,0-6.74,12.42.09Zm6.82,14.38L97.19,113v-6.42l19.27.14Zm-15.58,5.09.68,7.26-53.38.83.23-7.37,8.16-.11.19-49.9c0-3.94,6.34-6.3,13.66-7l.09-24,8.18-6.09.19,30c7.22.56,13.41,2.78,13.41,6.72l-.06,49.76ZM64.13,74.53l-.2,45.64,20.76-.29L85,74.81C85,68.8,64.13,70,64.13,74.53Zm4.63,16L80.42,88v27.33H68.76ZM68,140.92l-.18-9.56,12.93-.23L80.39,141l9.31.07,2.4,7.85-35.81.22,2.85-8.3Z"/></svg>